<?xml version="1.0" encoding="UTF-8" standalone="no"?><!DOCTYPE svg PUBLIC "-//W3C//DTD SVG 1.1//EN" "http://www.w3.org/Graphics/SVG/1.1/DTD/svg11.dtd"><svg width="100%" height="100%" viewBox="0 0 36 41" version="1.1" xmlns="http://www.w3.org/2000/svg" xmlns:xlink="http://www.w3.org/1999/xlink" xml:space="preserve" xmlns:serif="http://www.serif.com/" style="fill-rule:evenodd;clip-rule:evenodd;stroke-linejoin:round;stroke-miterlimit:2;"><path d="M28.414,12.509l0,-2.5c0,-5.514 -4.487,-10 -10,-10c-5.515,0 -10,4.486 -10,10l0,2.5l-7.5,0l0,21.25c0,3.452 2.798,6.25 6.25,6.25l22.5,0c3.451,0 6.25,-2.798 6.25,-6.25l0,-21.25l-7.5,0Zm-15,-2.5c0,-2.757 2.242,-5 5,-5c2.757,0 5,2.243 5,5l0,2.5l-10,0l0,-2.5Zm12.5,9.375c-1.036,0 -1.875,-0.839 -1.875,-1.875c0,-1.035 0.839,-1.875 1.875,-1.875c1.035,0 1.875,0.84 1.875,1.875c0,1.036 -0.84,1.875 -1.875,1.875Zm-15,0c-1.036,0 -1.875,-0.839 -1.875,-1.875c0,-1.035 0.839,-1.875 1.875,-1.875c1.035,0 1.875,0.84 1.875,1.875c0,1.036 -0.84,1.875 -1.875,1.875Z" style="fill-rule:nonzero;"/></svg>