<?xml version="1.0" encoding="UTF-8" standalone="no"?><!DOCTYPE svg PUBLIC "-//W3C//DTD SVG 1.1//EN" "http://www.w3.org/Graphics/SVG/1.1/DTD/svg11.dtd"><svg width="100%" height="100%" viewBox="0 0 12 16" version="1.1" xmlns="http://www.w3.org/2000/svg" xmlns:xlink="http://www.w3.org/1999/xlink" xml:space="preserve" xmlns:serif="http://www.serif.com/" style="fill-rule:evenodd;clip-rule:evenodd;stroke-linejoin:round;stroke-miterlimit:2;"><path d="M6.341,0.398c-3.006,0 -5.977,2.004 -5.977,5.247c0,2.063 1.161,3.235 1.864,3.235c0.29,0 0.457,-0.809 0.457,-1.037c0,-0.273 -0.695,-0.853 -0.695,-1.987c0,-2.355 1.793,-4.025 4.114,-4.025c1.995,0 3.471,1.134 3.471,3.217c0,1.555 -0.624,4.473 -2.645,4.473c-0.73,0 -1.354,-0.527 -1.354,-1.283c0,-1.107 0.774,-2.179 0.774,-3.322c0,-1.939 -2.751,-1.588 -2.751,0.756c0,0.492 0.061,1.037 0.281,1.485c-0.404,1.74 -1.23,4.333 -1.23,6.126c0,0.554 0.079,1.099 0.131,1.653c0.1,0.111 0.05,0.099 0.203,0.043c1.476,-2.021 1.423,-2.417 2.091,-5.062c0.361,0.686 1.292,1.055 2.031,1.055c3.111,0 4.508,-3.033 4.508,-5.766c0,-2.909 -2.513,-4.808 -5.273,-4.808Z" style="fill-rule:nonzero;"/></svg>