<?xml version="1.0" encoding="UTF-8" standalone="no"?><!DOCTYPE svg PUBLIC "-//W3C//DTD SVG 1.1//EN" "http://www.w3.org/Graphics/SVG/1.1/DTD/svg11.dtd"><svg width="100%" height="100%" viewBox="0 0 41 41" version="1.1" xmlns="http://www.w3.org/2000/svg" xmlns:xlink="http://www.w3.org/1999/xlink" xml:space="preserve" xmlns:serif="http://www.serif.com/" style="fill-rule:evenodd;clip-rule:evenodd;stroke-linejoin:round;stroke-miterlimit:2;"><circle cx="20.26" cy="20.131" r="20"/><clipPath id="_clip1"><circle cx="20.26" cy="20.131" r="20"/></clipPath><g clip-path="url(#_clip1)"><path d="M20.48,24.151c4.751,0 8.606,-3.854 8.606,-8.606c0,-4.751 -3.855,-8.606 -8.606,-8.606c-4.752,0 -8.606,3.855 -8.606,8.606c0,4.752 3.854,8.606 8.606,8.606Zm7.65,1.913l-3.293,0c-1.327,0.609 -2.803,0.956 -4.357,0.956c-1.554,0 -3.024,-0.347 -4.357,-0.956l-3.293,0c-4.226,0 -7.65,3.424 -7.65,7.65l0,0.956c0,1.584 1.285,5.929 2.869,5.929l24.862,0c1.583,0 2.868,-4.345 2.868,-5.929l0,-0.956c0,-4.226 -3.424,-7.65 -7.649,-7.65Z" style="fill:#fff;fill-rule:nonzero;"/></g></svg>