<svg width="200" height="200" viewBox="0 0 200 200" fill="none" xmlns="http://www.w3.org/2000/svg">
<path d="M74.9998 97.9165C69.2498 97.9165 64.5832 102.583 64.5832 108.333C64.5832 114.083 69.2498 118.75 74.9998 118.75C80.7498 118.75 85.4165 114.083 85.4165 108.333C85.4165 102.583 80.7498 97.9165 74.9998 97.9165ZM125 97.9165C119.25 97.9165 114.583 102.583 114.583 108.333C114.583 114.083 119.25 118.75 125 118.75C130.75 118.75 135.417 114.083 135.417 108.333C135.417 102.583 130.75 97.9165 125 97.9165ZM99.9998 16.6665C53.9998 16.6665 16.6665 53.9998 16.6665 99.9998C16.6665 146 53.9998 183.333 99.9998 183.333C146 183.333 183.333 146 183.333 99.9998C183.333 53.9998 146 16.6665 99.9998 16.6665ZM99.9998 166.667C63.2498 166.667 33.3332 136.75 33.3332 99.9998C33.3332 97.5832 33.4998 95.1665 33.7498 92.8332C53.4165 84.0832 68.9998 67.9998 77.1665 48.0832C92.2498 69.4165 117.083 83.3332 145.167 83.3332C151.667 83.3332 157.917 82.5832 163.917 81.1665C165.667 87.0832 166.667 93.4165 166.667 99.9998C166.667 136.75 136.75 166.667 99.9998 166.667Z" fill="black"/>
</svg>
