<?xml version="1.0" encoding="UTF-8" standalone="no"?><!DOCTYPE svg PUBLIC "-//W3C//DTD SVG 1.1//EN" "http://www.w3.org/Graphics/SVG/1.1/DTD/svg11.dtd"><svg width="100%" height="100%" viewBox="0 0 14 16" version="1.1" xmlns="http://www.w3.org/2000/svg" xmlns:xlink="http://www.w3.org/1999/xlink" xml:space="preserve" xmlns:serif="http://www.serif.com/" style="fill-rule:evenodd;clip-rule:evenodd;stroke-linejoin:round;stroke-miterlimit:2;"><clipPath id="_clip1"><rect x="0.385" y="0.189" width="13.125" height="15"/></clipPath><g clip-path="url(#_clip1)"><path d="M6.95,4.32c-1.863,0 -3.366,1.503 -3.366,3.367c0,1.863 1.503,3.366 3.366,3.366c1.863,0 3.366,-1.503 3.366,-3.366c0,-1.864 -1.503,-3.367 -3.366,-3.367Zm0,5.555c-1.204,0 -2.188,-0.981 -2.188,-2.188c0,-1.207 0.981,-2.189 2.188,-2.189c1.207,0 2.189,0.982 2.189,2.189c0,1.207 -0.985,2.188 -2.189,2.188Zm4.289,-5.692c0,0.436 -0.351,0.785 -0.785,0.785c-0.436,0 -0.785,-0.352 -0.785,-0.785c0,-0.434 0.351,-0.786 0.785,-0.786c0.434,0 0.785,0.352 0.785,0.786Zm2.23,0.797c-0.05,-1.052 -0.29,-1.984 -1.061,-2.751c-0.767,-0.768 -1.699,-1.008 -2.751,-1.061c-1.084,-0.062 -4.333,-0.062 -5.417,0c-1.049,0.05 -1.98,0.29 -2.751,1.058c-0.77,0.767 -1.008,1.699 -1.06,2.751c-0.062,1.084 -0.062,4.333 0,5.417c0.05,1.051 0.29,1.983 1.06,2.751c0.771,0.767 1.699,1.007 2.751,1.06c1.084,0.062 4.333,0.062 5.417,0c1.052,-0.05 1.984,-0.29 2.751,-1.06c0.768,-0.768 1.008,-1.7 1.061,-2.751c0.061,-1.084 0.061,-4.331 0,-5.414Zm-1.401,6.577c-0.228,0.574 -0.671,1.016 -1.248,1.248c-0.864,0.342 -2.915,0.263 -3.87,0.263c-0.955,0 -3.009,0.077 -3.87,-0.263c-0.574,-0.229 -1.017,-0.671 -1.248,-1.248c-0.343,-0.865 -0.264,-2.915 -0.264,-3.87c0,-0.956 -0.076,-3.009 0.264,-3.871c0.229,-0.574 0.671,-1.016 1.248,-1.248c0.864,-0.342 2.915,-0.263 3.87,-0.263c0.955,0 3.009,-0.076 3.87,0.263c0.575,0.229 1.017,0.671 1.248,1.248c0.343,0.865 0.264,2.915 0.264,3.871c0,0.955 0.079,3.008 -0.264,3.87Z" style="fill-rule:nonzero;"/></g></svg>